<?xml version="1.0" encoding="UTF-8"?>
<!DOCTYPE svg PUBLIC "-//W3C//DTD SVG 1.1//EN" "http://www.w3.org/Graphics/SVG/1.1/DTD/svg11.dtd">
<!-- Creator: CorelDRAW 2020 (64 Bit) -->
<svg xmlns="http://www.w3.org/2000/svg" xml:space="preserve" width="155.069mm" height="35.3358mm" version="1.1" style="shape-rendering:geometricPrecision; text-rendering:geometricPrecision; image-rendering:optimizeQuality; fill-rule:evenodd; clip-rule:evenodd"
viewBox="0 0 15492.61 3530.34"
 xmlns:xlink="http://www.w3.org/1999/xlink"
 xmlns:xodm="http://www.corel.com/coreldraw/odm/2003">
 <defs>
  <style type="text/css">
   <![CDATA[
    .str1 {stroke:#4080FE;stroke-width:7.61;stroke-miterlimit:22.9256}
    .str0 {stroke:#E1BB34;stroke-width:7.61;stroke-miterlimit:22.9256}
    .fil2 {fill:#4080FE}
    .fil1 {fill:#E1BB34}
    .fil5 {fill:black;fill-rule:nonzero}
    .fil3 {fill:#4080FE}
    .fil4 {fill:#E1BB34}
    .fil0 {fill:#4080FE;fill-rule:nonzero}
   ]]>
  </style>
 </defs>
 <g id="Camada_x0020_1">
  <metadata id="CorelCorpID_0Corel-Layer"/>
  <g id="_1531736753200">
   <g>
    <path class="fil0" d="M1190.85 0l1814.48 0c395.28,0 691.11,93.68 888.33,281.87 196.4,188.18 295.01,456.07 295.01,803.69 0,356.64 -107.64,636.06 -322.12,836.57 -187.24,175.75 -460.89,274.47 -820.42,296.72 -707.79,-104.7 -1391.19,-363.29 -1855.29,-780.17l0 -1438.68zm-853.39 1974.68c222.86,266.22 493.82,484.28 853.39,613.72l0 941.94 1094.59 0 0 -746.62c-727.93,-134.75 -1361.16,-351.88 -1947.98,-809.04zm1947.98 -465.91l268.72 0c212.02,0 360.77,-36.97 446.22,-110.1 85.47,-73.15 128.2,-166.83 128.2,-281.06 0,-110.94 -36.98,-204.61 -111.76,-281.86 -73.96,-77.24 -213.66,-115.87 -419.1,-115.87l-312.28 0 0 788.9z"/>
    <path class="fil1" d="M1049.62 1.86c-461,486.33 -507.07,961.61 -60.63,1423.72 925.43,957.99 2877.65,1200.37 4089.29,777.68 -1278.36,709.91 -3212.01,448.05 -4431.53,-280.57 -324.54,-220.78 -515.59,-460.68 -598.14,-694.09 -204.3,-577.6 255.65,-1115.68 1001.01,-1226.73z"/>
    <path class="fil2" d="M5138.7 1366.72l368.7 0 50.21 0c92.51,0 168.22,-75.68 168.22,-168.22l0 -0.02c0,-92.51 -75.7,-168.22 -168.22,-168.22l-1196.95 0 251.8 -312.95 993.62 0c264.65,0 481.17,216.55 481.17,481.15l0 0.05c0,208.74 -134.74,387.54 -321.56,453.74l343.62 379.92 -368.7 0 -318.84 -352.51 -748.15 0 0 352.51 -312.95 0 0 -352.51 0 -312.95 312.95 0 465.08 0z"/>
    <polygon class="fil2" points="6374.99,717.32 6687.94,717.32 6687.94,2032.18 6374.99,2032.18 "/>
    <polygon class="fil1 str0" points="14294.8,1679.35 14294.8,2039.2 13981.85,2039.2 13981.85,1679.35 "/>
    <polygon class="fil2" points="13981.85,724.33 14294.8,724.33 14294.8,1225.29 15179.66,1225.29 15179.66,724.33 15492.61,724.33 15492.61,2039.2 15179.66,2039.2 15179.66,1538.25 14294.8,1538.25 14294.8,1614.6 13981.85,1614.6 "/>
    <path class="fil3" d="M12747.93 717.32l1008.04 0 -136.68 269.57 -819.21 0c-213.33,0 -387.86,174.53 -387.86,387.83l0 0c0,213.35 174.51,387.88 387.86,387.88l955.89 0 -133.09 269.57 -874.96 0c-361.51,0 -657.4,-295.84 -657.4,-657.39l0 -0.08c0,-361.56 295.88,-657.4 657.4,-657.4z"/>
    <path class="fil2" d="M7580.02 1242.11l-189.16 0c-61.13,0 -111.12,-54.32 -111.12,-120.67l0 -0.03c0,-66.37 49.97,-120.67 111.12,-120.67l981.58 0 187.05 -279.37 -1232.45 0c-202.55,0 -368.25,180.03 -368.25,400.02l0 0.05c0,219.99 165.68,400.02 368.25,400.02l252.98 0 432.72 0 185.57 0c61.12,0 111.12,54.3 111.12,120.67l0 0.04c0,66.35 -49.97,120.66 -111.12,120.66l-1042.73 0 -187.06 279.35 1293.61 0c202.56,0 368.25,-180.01 368.25,-400.01l0 -0.06c0,-219.98 -165.69,-400.02 -368.25,-400.02l-682.11 0 0 0.02z"/>
    <polygon class="fil2" points="9289.1,717.32 9602.06,717.32 10312.46,717.32 10041.93,1030.27 9602.06,1030.27 9602.06,2032.18 9289.1,2032.18 9289.1,1030.27 8578.7,1030.27 8849.21,717.32 "/>
    <path class="fil3 str1" d="M10816.6 1216.07c23.25,31.15 60.34,51.39 102,51.39l948.32 0 -187.04 264.24 -761.28 0c-69.94,0 -127.18,57.2 -127.18,127.15l0 0c0,69.96 57.2,127.16 127.18,127.16l995.08 0 -194.25 246.16 -1240.96 0 0 -816.11 338.14 0z"/>
    <path class="fil4" d="M10478.46 717.32l1481.97 0 -194.23 295.81 -847.6 0c-69.92,0 -127.18,57.22 -127.18,127.17l0 0c0,2.18 0.05,4.35 0.16,6.52l-313.11 0 0 -429.51z"/>
   </g>
   <path class="fil5" d="M11203.52 2849.32l51.59 -31.01c36.38,67.11 78.39,100.66 126.04,100.66 20.44,0 39.61,-4.79 57.52,-14.24 17.9,-9.44 31.58,-22.27 40.88,-38.2 9.45,-15.94 14.1,-32.85 14.1,-50.75 0,-20.3 -6.9,-40.18 -20.72,-59.78 -19.03,-26.93 -53.71,-59.5 -104.32,-97.42 -50.75,-38.34 -82.33,-65.98 -94.74,-83.03 -21.57,-28.62 -32.28,-59.65 -32.28,-92.91 0,-26.37 6.34,-50.47 19.03,-72.18 12.69,-21.71 30.59,-38.76 53.71,-51.31 23.12,-12.55 48.08,-18.75 75.14,-18.75 28.76,0 55.69,7.05 80.65,21.29 24.96,14.1 51.45,40.18 79.37,78.1l-49.62 37.65c-22.98,-30.31 -42.57,-50.33 -58.79,-59.91 -16.22,-9.73 -33.84,-14.53 -52.87,-14.53 -24.67,0 -44.83,7.47 -60.47,22.28 -15.66,14.95 -23.55,33.13 -23.55,54.98 0,13.12 2.82,25.95 8.32,38.35 5.49,12.4 15.65,25.8 30.31,40.46 7.89,7.61 34.26,27.91 78.81,60.61 52.72,38.91 88.96,73.45 108.55,103.62 19.6,30.31 29.46,60.76 29.46,91.36 0,43.99 -16.77,82.33 -50.18,114.76 -33.56,32.56 -74.3,48.78 -122.23,48.78 -36.95,0 -70.5,-9.87 -100.53,-29.6 -30.02,-19.74 -57.8,-52.87 -83.17,-99.26zm773.42 -508.94c91.93,0 168.9,30.73 230.79,92.07 61.89,61.32 92.91,136.89 92.91,226.55 0,88.96 -30.88,164.39 -92.62,226.28 -61.89,61.89 -137.18,92.9 -226.14,92.9 -89.95,0 -165.94,-30.87 -227.82,-92.49 -61.89,-61.6 -92.91,-136.18 -92.91,-223.73 0,-58.37 14.1,-112.37 42.3,-162.27 28.19,-49.77 66.68,-88.82 115.46,-117.02 48.64,-28.19 101.37,-42.29 158.03,-42.29zm2.68 59.22c-44.83,0 -87.4,11.7 -127.72,35.1 -40.18,23.41 -71.62,54.85 -94.32,94.46 -22.55,39.75 -33.83,83.88 -33.83,132.67 0,72.03 24.95,132.94 75,182.57 50.04,49.76 110.39,74.57 180.87,74.57 47.24,0 90.8,-11.42 130.84,-34.26 40.17,-22.84 71.47,-54.13 93.89,-93.75 22.41,-39.61 33.69,-83.6 33.69,-132.1 0,-48.22 -11.28,-91.78 -33.69,-130.69 -22.42,-38.91 -54.14,-70.07 -94.88,-93.47 -40.74,-23.4 -84.02,-35.1 -129.85,-35.1zm442.97 -43.99l304.52 0 0 59.22 -243.62 0 0 190.33 243.62 0 0 59.22 -243.62 0 0 298.6 -60.9 0 0 -607.35zm350.06 59.22l0 -59.22 332.43 0 0 59.22 -135.35 0 0 548.14 -61.75 0 0 -548.14 -135.34 0zm386.42 -59.22l61.47 0 125.05 437.33 176.23 -437.33 10.58 0 171.85 437.33 125.75 -437.33 61.61 0 -174.68 607.35 -9.87 0 -180.45 -459.32 -185.11 459.32 -8.74 0 -173.69 -607.35zm1094.58 0l283.38 607.35 -65.28 0 -94.88 -199.63 -263.21 0 -94.32 199.63 -67.67 0 286.76 -607.35 15.23 0zm-7.61 127.45l-104.46 221.06 208.51 0 -104.04 -221.06zm387.98 -127.45l121.24 0c67.54,0 113.36,2.82 137.32,8.32 36.23,8.17 65.55,25.8 88.11,53 22.7,27.08 33.98,60.48 33.98,100.1 0,32.99 -7.75,62.03 -23.41,86.99 -15.51,25.1 -37.78,43.99 -66.82,56.82 -28.9,12.83 -68.95,19.31 -119.98,19.59l218.67 282.53 -74.58 0 -218.67 -282.53 -34.96 0 0 282.53 -60.9 0 0 -607.35zm60.9 59.22l0 206.4 104.88 0.84c40.75,0 70.77,-3.81 90.24,-11.56 19.45,-7.75 34.68,-20.02 45.68,-36.94 10.85,-16.91 16.34,-35.81 16.34,-56.82 0,-20.3 -5.49,-38.91 -16.63,-55.55 -10.99,-16.63 -25.52,-28.47 -43.56,-35.67 -17.9,-7.18 -47.8,-10.71 -89.53,-10.71l-107.42 0zm450.02 -59.22l347.66 0 0 59.22 -286.76 0 0 190.33 284.22 0 0 59.22 -284.22 0 0 239.38 284.22 0 0 59.22 -345.12 0 0 -607.35z"/>
  </g>
 </g>
</svg>
